<svg xmlns="http://www.w3.org/2000/svg" xmlns:xlink="http://www.w3.org/1999/xlink" width="128" zoomAndPan="magnify" viewBox="0 0 375 374.999991" height="128" preserveAspectRatio="xMidYMid meet" version="1.0"><defs><g/></defs><g fill="#FFFFFF" fill-opacity="1"><g transform="translate(29.967579, 239.249984)"><g><path d="M 6.769531 -90.289062 L 6.769531 2.304688 C 6.769531 16.558594 4.753906 25.632812 -9.503906 25.632812 L -9.503906 27.9375 C 7.488281 27.9375 17.136719 16.128906 17.136719 2.304688 L 17.136719 -90.289062 Z M 6.769531 -90.289062 "/></g></g></g><g fill="#FFFFFF" fill-opacity="1"><g transform="translate(54.591566, 239.249984)"><g><path d="M 3.601562 -6.625 L 3.601562 -3.3125 C 3.601562 -3.3125 12.382812 3.742188 27.9375 3.742188 C 43.488281 3.742188 58.320312 -7.054688 58.320312 -23.039062 C 58.320312 -55.296875 12.097656 -45.792969 12.097656 -72 C 12.097656 -82.222656 19.152344 -90.574219 31.535156 -90.574219 C 43.777344 -90.574219 51.695312 -84.671875 51.695312 -84.671875 L 51.550781 -87.695312 C 51.550781 -87.695312 42.910156 -93.023438 31.390625 -93.023438 C 20.015625 -93.023438 4.03125 -86.113281 4.03125 -68.113281 C 4.03125 -35.855469 50.113281 -47.953125 50.113281 -19.441406 C 50.113281 -5.472656 39.457031 1.441406 27.9375 1.441406 C 15.550781 1.441406 8.640625 -2.734375 3.601562 -6.625 Z M 3.601562 -6.625 "/></g></g></g><g fill="#FFFFFF" fill-opacity="1"><g transform="translate(128.653701, 185.999988)"><g><path d="M 4.203125 0 L 4.203125 -19.714844 L 2.175781 -19.714844 L 2.175781 0 Z M 4.203125 0 "/></g></g></g><g fill="#FFFFFF" fill-opacity="1"><g transform="translate(135.031985, 185.999988)"><g><path d="M 4.203125 -14.527344 L 15.28125 1.21875 L 15.28125 -19.714844 L 13.25 -19.714844 L 13.25 -5.21875 L 2.175781 -20.964844 L 2.175781 0 L 4.203125 0 Z M 4.203125 -14.527344 "/></g></g></g><g fill="#FFFFFF" fill-opacity="1"><g transform="translate(152.485276, 185.999988)"><g><path d="M 9.25 1.1875 L 18.179688 -19.714844 L 15.976562 -19.714844 L 9.25 -3.828125 L 2.492188 -19.714844 L 0.289062 -19.714844 Z M 9.25 1.1875 "/></g></g></g><g fill="#FFFFFF" fill-opacity="1"><g transform="translate(170.953292, 185.999988)"><g><path d="M 13.886719 0 L 13.886719 -1.882812 L 4.203125 -1.882812 L 4.203125 -8.902344 L 13.597656 -8.902344 L 13.597656 -10.816406 L 4.203125 -10.816406 L 4.203125 -17.832031 L 13.886719 -17.832031 L 13.886719 -19.714844 L 2.175781 -19.714844 L 2.175781 0 Z M 13.886719 0 "/></g></g></g><g fill="#FFFFFF" fill-opacity="1"><g transform="translate(187.01496, 185.999988)"><g><path d="M 7.625 -9.277344 C 10.175781 -8.667969 11.917969 -8.003906 12.84375 -7.25 C 13.484375 -6.726562 13.800781 -6.058594 13.800781 -5.25 C 13.800781 -4.4375 13.628906 -3.769531 13.28125 -3.304688 C 12.410156 -2.085938 10.84375 -1.480469 8.640625 -1.480469 C 5.566406 -1.480469 3.828125 -2.523438 3.449219 -4.609375 L 1.074219 -4.609375 C 1.769531 -1.277344 4.292969 0.375 8.640625 0.375 C 10.582031 0.375 12.207031 -0.0273438 13.511719 -0.898438 C 15.078125 -1.914062 15.890625 -3.421875 15.890625 -5.394531 C 15.890625 -7.015625 15.25 -8.261719 13.976562 -9.132812 C 13.078125 -9.769531 11.628906 -10.351562 9.625 -10.875 C 7.597656 -11.394531 6.292969 -11.828125 5.683594 -12.148438 C 4.347656 -12.816406 3.683594 -13.742188 3.710938 -14.960938 C 3.710938 -15.597656 3.828125 -16.148438 4.117188 -16.554688 C 4.871094 -17.6875 6.203125 -18.265625 8.117188 -18.265625 C 10.816406 -18.265625 12.351562 -17.398438 12.757812 -15.714844 L 14.960938 -15.714844 C 14.238281 -18.558594 11.945312 -20.007812 8.117188 -20.007812 C 6.378906 -20.007812 4.84375 -19.542969 3.566406 -18.613281 C 2.261719 -17.6875 1.59375 -16.324219 1.59375 -14.46875 C 1.59375 -11.945312 3.625 -10.207031 7.625 -9.277344 Z M 7.625 -9.277344 "/></g></g></g><g fill="#FFFFFF" fill-opacity="1"><g transform="translate(203.656465, 185.999988)"><g><path d="M 0.578125 -17.890625 L 5.363281 -17.890625 L 5.363281 -0.0585938 L 7.394531 -0.0585938 L 7.394531 -17.890625 L 12.179688 -17.890625 L 12.179688 -19.773438 L 0.578125 -19.773438 Z M 0.578125 -17.890625 "/></g></g></g><g fill="#FFFFFF" fill-opacity="1"><g transform="translate(216.413022, 185.999988)"><g><path d="M 4.203125 0 L 4.203125 -19.714844 L 2.175781 -19.714844 L 2.175781 0 Z M 4.203125 0 "/></g></g></g><g fill="#FFFFFF" fill-opacity="1"><g transform="translate(222.791306, 185.999988)"><g><path d="M 21.628906 -9.21875 L 11.367188 -9.21875 L 11.367188 -7.453125 L 19.367188 -7.453125 C 18.757812 -5.742188 17.746094 -4.347656 16.296875 -3.335938 C 14.84375 -2.289062 13.222656 -1.796875 11.453125 -1.796875 C 9.191406 -1.796875 7.277344 -2.582031 5.683594 -4.175781 C 4.117188 -5.769531 3.335938 -7.710938 3.335938 -9.945312 C 3.335938 -12.179688 4.117188 -14.089844 5.710938 -15.6875 C 7.277344 -17.253906 9.191406 -18.0625 11.453125 -18.0625 C 13.132812 -18.0625 14.671875 -17.570312 16.035156 -16.613281 C 17.425781 -15.65625 18.410156 -14.410156 19.050781 -12.816406 L 21.195312 -12.816406 C 20.527344 -14.992188 19.28125 -16.730469 17.484375 -18.0625 C 15.6875 -19.398438 13.597656 -20.09375 11.25 -20.09375 C 9.972656 -20.09375 8.726562 -19.804688 7.507812 -19.28125 C 6.261719 -18.757812 5.191406 -18.035156 4.261719 -17.105469 C 3.335938 -16.179688 2.609375 -15.105469 2.085938 -13.886719 C 1.566406 -12.640625 1.304688 -11.308594 1.304688 -9.917969 C 1.304688 -8.523438 1.566406 -7.191406 2.085938 -5.972656 C 2.609375 -4.726562 3.335938 -3.652344 4.261719 -2.726562 C 5.191406 -1.796875 6.261719 -1.074219 7.507812 -0.550781 C 8.726562 -0.0273438 10.0625 0.230469 11.453125 0.230469 C 13.832031 0.230469 15.976562 -0.523438 17.890625 -2.058594 C 19.804688 -3.625 20.992188 -5.597656 21.425781 -8.003906 Z M 21.628906 -9.21875 "/></g></g></g><g fill="#FFFFFF" fill-opacity="1"><g transform="translate(245.724119, 185.999988)"><g><path d="M 5.363281 -7.25 L 8.960938 -16.324219 L 12.527344 -7.25 Z M 17.601562 0 L 8.960938 -21.078125 L 0.289062 0 L 2.492188 0 L 4.609375 -5.363281 L 13.28125 -5.363281 L 15.394531 0 Z M 17.601562 0 "/></g></g></g><g fill="#FFFFFF" fill-opacity="1"><g transform="translate(263.612286, 185.999988)"><g><path d="M 20.265625 -6.03125 L 18.035156 -6.03125 C 17.339844 -4.753906 16.382812 -3.710938 15.164062 -2.957031 C 13.945312 -2.175781 12.582031 -1.796875 11.132812 -1.796875 C 8.960938 -1.796875 7.105469 -2.582031 5.566406 -4.203125 C 4.058594 -5.742188 3.335938 -7.625 3.335938 -9.828125 C 3.335938 -12.03125 4.058594 -13.917969 5.566406 -15.484375 C 6.261719 -16.207031 7.105469 -16.789062 8.0625 -17.222656 C 8.988281 -17.65625 9.917969 -17.890625 10.84375 -17.890625 C 11.742188 -17.890625 12.527344 -17.773438 13.222656 -17.570312 C 15.339844 -16.933594 16.933594 -15.65625 18.007812 -13.714844 L 20.238281 -13.714844 C 19.484375 -15.570312 18.296875 -17.078125 16.644531 -18.238281 C 14.960938 -19.398438 13.132812 -19.976562 11.132812 -19.976562 C 8.378906 -19.976562 6.058594 -18.960938 4.144531 -16.960938 C 3.246094 -16.035156 2.550781 -14.933594 2.058594 -13.714844 C 1.535156 -12.496094 1.304688 -11.191406 1.304688 -9.828125 C 1.304688 -7.046875 2.234375 -4.695312 4.144531 -2.726562 C 5.742188 -1.015625 7.65625 -0.0273438 9.859375 0.230469 L 8.613281 2.988281 C 8.988281 2.929688 9.394531 2.871094 9.859375 2.785156 C 10.292969 2.726562 10.726562 2.695312 11.132812 2.753906 C 12.207031 2.929688 12.671875 3.507812 12.496094 4.523438 C 12.410156 5.160156 11.859375 5.507812 10.84375 5.625 C 9.859375 5.742188 8.816406 5.597656 7.742188 5.191406 L 7.015625 6.699219 C 8.378906 7.25 9.714844 7.421875 11.046875 7.25 C 12.46875 7.046875 13.394531 6.40625 13.859375 5.335938 C 14.265625 4.378906 14.207031 3.449219 13.742188 2.582031 C 13.511719 2.203125 13.222656 1.882812 12.875 1.652344 C 12.527344 1.421875 12.089844 1.304688 11.628906 1.304688 C 11.164062 1.304688 10.929688 1.332031 10.902344 1.332031 L 11.394531 0.289062 C 13.28125 0.261719 15.046875 -0.320312 16.671875 -1.449219 C 18.324219 -2.609375 19.511719 -4.117188 20.265625 -6.03125 Z M 20.265625 -6.03125 "/></g></g></g><g fill="#FFFFFF" fill-opacity="1"><g transform="translate(284.747577, 185.999988)"><g><path d="M 5.363281 -7.25 L 8.960938 -16.324219 L 12.527344 -7.25 Z M 17.601562 0 L 8.960938 -21.078125 L 0.289062 0 L 2.492188 0 L 4.609375 -5.363281 L 13.28125 -5.363281 L 15.394531 0 Z M 4.175781 -21.746094 L 5.597656 -21.746094 C 5.539062 -22.09375 5.566406 -22.441406 5.652344 -22.730469 C 5.800781 -23.398438 6.203125 -23.746094 6.84375 -23.746094 C 7.21875 -23.746094 7.539062 -23.601562 7.769531 -23.371094 C 8.003906 -23.136719 8.234375 -22.847656 8.464844 -22.558594 C 8.699219 -22.269531 9.015625 -21.976562 9.367188 -21.746094 C 9.714844 -21.515625 10.234375 -21.398438 10.988281 -21.398438 C 11.742188 -21.398438 12.292969 -21.574219 12.699219 -21.949219 C 13.484375 -22.703125 13.800781 -23.71875 13.6875 -25.023438 L 12.265625 -25.023438 C 12.265625 -24.269531 12.207031 -23.804688 12.121094 -23.574219 C 12.03125 -23.398438 11.917969 -23.253906 11.742188 -23.167969 C 11.570312 -23.050781 11.308594 -23.023438 10.960938 -23.023438 C 10.613281 -23.023438 10.320312 -23.136719 10.089844 -23.371094 C 9.859375 -23.601562 9.625 -23.890625 9.394531 -24.183594 C 9.164062 -24.472656 8.871094 -24.734375 8.523438 -24.964844 C 8.175781 -25.195312 7.625 -25.339844 6.929688 -25.339844 C 6.203125 -25.339844 5.652344 -25.136719 5.25 -24.761719 C 4.496094 -24.035156 4.117188 -23.023438 4.175781 -21.746094 Z M 4.175781 -21.746094 "/></g></g></g><g fill="#FFFFFF" fill-opacity="1"><g transform="translate(302.635744, 185.999988)"><g><path d="M 19.542969 -9.917969 C 19.542969 -7.65625 18.730469 -5.742188 17.164062 -4.175781 C 15.570312 -2.582031 13.65625 -1.796875 11.425781 -1.796875 C 9.191406 -1.796875 7.277344 -2.582031 5.710938 -4.175781 C 4.117188 -5.742188 3.335938 -7.65625 3.335938 -9.917969 C 3.335938 -12.121094 4.117188 -14.035156 5.710938 -15.628906 C 7.277344 -17.195312 9.191406 -18.007812 11.425781 -18.007812 C 13.65625 -18.007812 15.570312 -17.195312 17.164062 -15.628906 C 18.730469 -14.035156 19.542969 -12.121094 19.542969 -9.917969 Z M 21.574219 -9.917969 C 21.574219 -11.308594 21.28125 -12.613281 20.761719 -13.859375 C 20.238281 -15.078125 19.511719 -16.148438 18.585938 -17.078125 C 17.65625 -17.976562 16.585938 -18.703125 15.367188 -19.222656 C 14.121094 -19.746094 12.816406 -20.035156 11.425781 -20.035156 C 10.03125 -20.035156 8.699219 -19.746094 7.480469 -19.222656 C 6.261719 -18.703125 5.191406 -17.976562 4.261719 -17.078125 C 3.335938 -16.148438 2.609375 -15.078125 2.085938 -13.859375 C 1.566406 -12.613281 1.304688 -11.308594 1.304688 -9.917969 C 1.304688 -8.523438 1.566406 -7.191406 2.085938 -5.972656 C 2.609375 -4.726562 3.335938 -3.652344 4.261719 -2.726562 C 5.191406 -1.796875 6.261719 -1.074219 7.480469 -0.550781 C 8.699219 -0.0273438 10.03125 0.230469 11.425781 0.230469 C 12.816406 0.230469 14.121094 -0.0273438 15.367188 -0.550781 C 16.585938 -1.074219 17.65625 -1.796875 18.585938 -2.726562 C 19.511719 -3.652344 20.238281 -4.726562 20.761719 -5.972656 C 21.28125 -7.191406 21.574219 -8.523438 21.574219 -9.917969 Z M 21.574219 -9.917969 "/></g></g></g><g fill="#FFFFFF" fill-opacity="1"><g transform="translate(150.614637, 226.499985)"><g><path d="M 4.203125 -9.769531 L 4.203125 -17.773438 L 8.785156 -17.773438 C 9.972656 -17.773438 10.929688 -17.398438 11.65625 -16.671875 C 12.351562 -15.917969 12.730469 -14.992188 12.730469 -13.832031 C 12.730469 -12.640625 12.351562 -11.683594 11.597656 -10.902344 C 10.84375 -10.148438 9.917969 -9.769531 8.785156 -9.769531 Z M 14.757812 -13.773438 C 14.757812 -15.511719 14.121094 -16.933594 12.902344 -18.0625 C 11.683594 -19.164062 10.234375 -19.714844 8.496094 -19.714844 L 2.175781 -19.714844 L 2.175781 0 L 4.203125 0 L 4.203125 -7.800781 L 8.496094 -7.800781 C 10.234375 -7.800781 11.714844 -8.351562 12.902344 -9.453125 C 14.121094 -10.613281 14.757812 -12.03125 14.757812 -13.773438 Z M 14.757812 -13.773438 "/></g></g></g><g fill="#FFFFFF" fill-opacity="1"><g transform="translate(165.951492, 226.499985)"><g><path d="M 5.363281 -7.25 L 8.960938 -16.324219 L 12.527344 -7.25 Z M 17.601562 0 L 8.960938 -21.078125 L 0.289062 0 L 2.492188 0 L 4.609375 -5.363281 L 13.28125 -5.363281 L 15.394531 0 Z M 17.601562 0 "/></g></g></g><g fill="#FFFFFF" fill-opacity="1"><g transform="translate(183.839659, 226.499985)"><g><path d="M 4.203125 -9.742188 L 4.203125 -17.773438 L 8.785156 -17.773438 C 9.972656 -17.773438 10.929688 -17.398438 11.65625 -16.644531 C 12.351562 -15.890625 12.730469 -14.960938 12.730469 -13.800781 C 12.730469 -12.640625 12.351562 -11.683594 11.597656 -10.902344 C 10.84375 -10.121094 9.917969 -9.742188 8.785156 -9.742188 Z M 14.757812 -13.773438 C 14.757812 -15.453125 14.121094 -16.902344 12.902344 -18.035156 C 11.714844 -19.136719 10.234375 -19.714844 8.496094 -19.714844 L 2.175781 -19.714844 L 2.175781 0 L 4.203125 0 L 4.203125 -7.800781 L 6.554688 -7.800781 L 12.351562 0 L 15.078125 0 L 8.988281 -7.800781 C 10.523438 -7.886719 11.828125 -8.4375 12.902344 -9.453125 C 14.121094 -10.582031 14.757812 -12.03125 14.757812 -13.773438 Z M 14.757812 -13.773438 "/></g></g></g><g fill="#FFFFFF" fill-opacity="1"><g transform="translate(199.611402, 226.499985)"><g><path d="M 0.578125 -17.890625 L 5.363281 -17.890625 L 5.363281 -0.0585938 L 7.394531 -0.0585938 L 7.394531 -17.890625 L 12.179688 -17.890625 L 12.179688 -19.773438 L 0.578125 -19.773438 Z M 0.578125 -17.890625 "/></g></g></g><g fill="#FFFFFF" fill-opacity="1"><g transform="translate(212.367959, 226.499985)"><g><path d="M 4.203125 0 L 4.203125 -19.714844 L 2.175781 -19.714844 L 2.175781 0 Z M 4.203125 0 "/></g></g></g><g fill="#FFFFFF" fill-opacity="1"><g transform="translate(218.746243, 226.499985)"><g><path d="M 20.265625 -6.03125 L 18.035156 -6.03125 C 17.339844 -4.753906 16.382812 -3.710938 15.164062 -2.957031 C 13.945312 -2.175781 12.582031 -1.796875 11.132812 -1.796875 C 8.960938 -1.796875 7.105469 -2.582031 5.566406 -4.203125 C 4.058594 -5.742188 3.335938 -7.625 3.335938 -9.828125 C 3.335938 -12.03125 4.058594 -13.917969 5.566406 -15.484375 C 6.261719 -16.207031 7.105469 -16.789062 8.0625 -17.222656 C 8.988281 -17.65625 9.917969 -17.890625 10.84375 -17.890625 C 11.742188 -17.890625 12.527344 -17.773438 13.222656 -17.570312 C 15.339844 -16.933594 16.933594 -15.65625 18.007812 -13.714844 L 20.238281 -13.714844 C 19.484375 -15.570312 18.296875 -17.078125 16.644531 -18.238281 C 14.960938 -19.398438 13.132812 -19.976562 11.132812 -19.976562 C 8.378906 -19.976562 6.058594 -18.960938 4.144531 -16.960938 C 3.246094 -16.035156 2.550781 -14.933594 2.058594 -13.714844 C 1.535156 -12.496094 1.304688 -11.191406 1.304688 -9.828125 C 1.304688 -7.046875 2.234375 -4.695312 4.144531 -2.726562 C 6.058594 -0.695312 8.378906 0.289062 11.132812 0.289062 C 13.132812 0.289062 14.960938 -0.289062 16.671875 -1.449219 C 18.324219 -2.609375 19.511719 -4.117188 20.265625 -6.03125 Z M 20.265625 -6.03125 "/></g></g></g><g fill="#FFFFFF" fill-opacity="1"><g transform="translate(239.881533, 226.499985)"><g><path d="M 16.441406 -6.523438 L 16.441406 -19.714844 L 14.410156 -19.714844 L 14.410156 -6.234375 C 14.410156 -5.421875 14.265625 -4.753906 13.976562 -4.203125 C 13.132812 -2.582031 11.511719 -1.769531 9.105469 -1.769531 C 7.539062 -1.769531 6.292969 -2.117188 5.363281 -2.8125 C 4.292969 -3.59375 3.769531 -4.726562 3.769531 -6.234375 L 3.769531 -19.714844 L 1.738281 -19.714844 L 1.738281 -6.523438 C 1.738281 -4.378906 2.4375 -2.695312 3.828125 -1.480469 C 5.132812 -0.320312 6.902344 0.261719 9.105469 0.261719 C 11.277344 0.261719 13.019531 -0.320312 14.351562 -1.480469 C 15.746094 -2.695312 16.441406 -4.378906 16.441406 -6.523438 Z M 16.441406 -6.523438 "/></g></g></g><g fill="#FFFFFF" fill-opacity="1"><g transform="translate(258.059625, 226.499985)"><g><path d="M 4.203125 -2.03125 L 4.203125 -19.714844 L 2.175781 -19.714844 L 2.175781 0 L 11.25 0 L 11.25 -2.03125 Z M 4.203125 -2.03125 "/></g></g></g><g fill="#FFFFFF" fill-opacity="1"><g transform="translate(269.888432, 226.499985)"><g><path d="M 5.363281 -7.25 L 8.960938 -16.324219 L 12.527344 -7.25 Z M 17.601562 0 L 8.960938 -21.078125 L 0.289062 0 L 2.492188 0 L 4.609375 -5.363281 L 13.28125 -5.363281 L 15.394531 0 Z M 17.601562 0 "/></g></g></g><g fill="#FFFFFF" fill-opacity="1"><g transform="translate(287.776599, 226.499985)"><g><path d="M 4.203125 -9.742188 L 4.203125 -17.773438 L 8.785156 -17.773438 C 9.972656 -17.773438 10.929688 -17.398438 11.65625 -16.644531 C 12.351562 -15.890625 12.730469 -14.960938 12.730469 -13.800781 C 12.730469 -12.640625 12.351562 -11.683594 11.597656 -10.902344 C 10.84375 -10.121094 9.917969 -9.742188 8.785156 -9.742188 Z M 14.757812 -13.773438 C 14.757812 -15.453125 14.121094 -16.902344 12.902344 -18.035156 C 11.714844 -19.136719 10.234375 -19.714844 8.496094 -19.714844 L 2.175781 -19.714844 L 2.175781 0 L 4.203125 0 L 4.203125 -7.800781 L 6.554688 -7.800781 L 12.351562 0 L 15.078125 0 L 8.988281 -7.800781 C 10.523438 -7.886719 11.828125 -8.4375 12.902344 -9.453125 C 14.121094 -10.582031 14.757812 -12.03125 14.757812 -13.773438 Z M 14.757812 -13.773438 "/></g></g></g></svg>